# xmcd
#
# Track frame offsets: 
#        150
#        18907
#        40032
#        60042
#        81092
#        98970
#        119575
#        145307
#        162845
#        185070
#        204357
#
# Disc length: 3059 seconds
#
# Revision: 2
# Processed by: cddbd v1.5.2PL0 Copyright (c) Steve Scherf et al.
# Submitted via: ExactAudioCopy v1.0b6
#
DISCID=8a0bf10b
DTITLE=池田聡 - 君を忘れない
DYEAR=1990
DGENRE=JPop
TTITLE0=For You And I
TTITLE1=Long Summer Night
TTITLE2=fuzzyな天使
TTITLE3=僕は君じゃない
TTITLE4=10月のひまわり
TTITLE5=僕たちの約束
TTITLE6=砂の睡り
TTITLE7=Snow Waltz
TTITLE8=My Memories
TTITLE9=prayer
TTITLE10=君を忘れない
EXTD=
EXTT0=
EXTT1=
EXTT2=
EXTT3=
EXTT4=
EXTT5=
EXTT6=
EXTT7=
EXTT8=
EXTT9=
EXTT10=
PLAYORDER=
